<svg version="1.1" id="Layer_1" xmlns="http://www.w3.org/2000/svg" xmlns:xlink="http://www.w3.org/1999/xlink" x="0px" y="0px"
	 width="100%" viewBox="0 0 269 187" enable-background="new 0 0 269 187" xml:space="preserve">
<path fill="#FEFFFF" opacity="1.000000" stroke="none" 
	d="
M191.000000,188.000000 
	C127.333344,188.000000 64.166679,188.000000 1.000017,188.000000 
	C1.000011,125.666679 1.000011,63.333363 1.000006,1.000034 
	C90.666634,1.000022 180.333267,1.000022 269.999939,1.000011 
	C269.999939,63.333298 269.999939,125.666595 269.999969,187.999939 
	C243.833328,188.000000 217.666672,188.000000 191.000000,188.000000 
M198.666992,89.946480 
	C198.738892,94.619148 198.810806,99.291809 198.902939,104.547256 
	C199.256744,104.655037 199.610535,104.762817 200.769272,105.023697 
	C201.856735,104.972664 202.944199,104.921623 204.497528,104.960434 
	C204.497528,104.960434 204.962006,104.863525 205.687378,104.944229 
	C210.073212,103.713638 212.180725,100.815605 212.052597,96.268883 
	C211.935715,92.120232 210.526581,88.944542 205.499908,87.987938 
	C205.499908,87.987938 205.020813,88.062195 204.199005,87.858505 
	C202.795074,87.917336 201.391129,87.976166 199.376358,88.039597 
	C199.211990,88.373024 199.047607,88.706444 198.666992,89.946480 
M124.106270,122.603653 
	C137.772354,108.936646 151.442444,95.273621 165.101624,81.599716 
	C168.332260,78.365593 168.967926,70.916031 166.295715,68.034233 
	C163.763718,65.303658 154.728455,65.687256 151.713760,68.697884 
	C136.976990,83.414719 122.250603,98.141953 107.535675,112.880630 
	C106.749016,113.668556 106.100029,114.593941 104.771576,116.198692 
	C113.450310,115.759628 118.034241,119.497566 117.954651,128.460495 
	C118.485748,128.358566 119.016838,128.256622 119.547935,128.154694 
	C120.900826,126.471024 122.253716,124.787354 124.106270,122.603653 
M49.047844,70.541275 
	C52.272018,71.468079 54.815269,70.489433 57.838593,68.890869 
	C62.408886,66.474365 67.590515,64.610481 72.699142,63.944439 
	C82.587975,62.655178 90.739777,67.049637 99.165001,75.720711 
	C96.904312,64.186813 104.028908,62.919430 111.714935,61.871548 
	C98.629372,47.381924 83.002754,42.562294 65.406578,45.865887 
	C58.037102,47.249470 51.248119,51.871193 44.286247,55.210495 
	C41.336823,56.625198 39.938847,58.845024 41.172382,62.488426 
	C42.447128,66.253555 42.644039,70.610901 49.047844,70.541275 
M239.424103,67.161087 
	C237.870636,65.537300 236.317169,63.913521 233.569550,61.041531 
	C233.985718,70.468338 230.124588,74.811073 221.398544,74.422623 
	C222.446716,76.139488 222.855026,77.014633 223.444519,77.743149 
	C233.236115,89.843925 232.810135,105.578545 222.348434,117.314102 
	C219.381805,120.641953 221.906311,129.437180 226.223999,130.816315 
	C233.312180,133.080399 235.305984,132.177826 239.997147,125.969452 
	C252.209839,109.806946 252.606094,84.090714 239.424103,67.161087 
M219.880020,70.996918 
	C227.679306,69.559174 227.556137,69.531616 229.434494,61.136436 
	C230.586807,55.986290 226.218018,54.974331 223.509521,53.202000 
	C209.028625,43.726254 193.479324,42.198738 177.449554,48.572220 
	C170.582809,51.302448 164.311157,55.319954 158.907501,62.497948 
	C167.396698,62.560913 172.866974,65.257736 172.309860,73.926102 
	C173.373474,73.612923 173.748276,73.607071 173.974960,73.420891 
	C188.771713,61.268314 198.929016,60.629971 215.478485,70.684509 
	C216.424347,71.259155 217.890182,70.977921 219.880020,70.996918 
M168.546692,139.992676 
	C190.839081,156.662521 219.460754,149.694794 231.054443,135.706604 
	C222.682053,136.056854 218.929611,131.290665 217.744202,123.748192 
	C209.177307,129.197495 200.740417,133.062347 191.305191,129.863815 
	C186.101212,128.099670 181.154144,125.110588 176.640488,121.901253 
	C171.559174,118.288277 163.706055,120.909935 161.724487,126.613373 
	C159.303909,133.580383 163.769653,136.279251 168.546692,139.992676 
M61.720192,125.967667 
	C60.208843,125.100098 58.697495,124.232529 57.104160,123.317902 
	C55.689346,126.767334 55.163757,130.562531 52.991817,132.618515 
	C50.928432,134.571716 47.142998,134.705750 43.795204,135.738251 
	C62.358364,153.634491 92.352600,153.111984 110.545982,135.090714 
	C113.348984,132.314224 113.929832,124.497650 111.542625,121.678513 
	C109.642723,119.434868 100.378845,119.285866 97.889023,121.458916 
	C86.966187,130.992081 75.397011,132.565140 61.720192,125.967667 
M27.171286,77.848167 
	C20.271868,96.528275 22.518847,113.733292 35.595974,129.100281 
	C38.438667,132.440750 44.957378,132.614883 48.598549,129.747498 
	C51.539223,127.431740 52.141685,120.101593 49.653988,116.905838 
	C39.735027,104.163712 39.519516,91.079414 48.987335,77.937195 
	C49.695000,76.954887 50.258049,75.868393 51.401054,73.985855 
	C42.094864,75.037758 38.919861,69.968819 38.385502,62.075993 
	C37.900597,62.110313 37.415695,62.144634 36.930790,62.178951 
	C33.783875,67.169067 30.636957,72.159187 27.171286,77.848167 
M129.521378,85.988663 
	C130.737915,84.692612 131.954437,83.396561 133.849167,81.377983 
	C129.269440,77.092300 124.601707,73.314743 120.676407,68.880043 
	C116.967430,64.689758 113.240143,63.080887 107.718155,64.902702 
	C103.291550,66.363121 99.806564,74.436768 103.007034,77.902946 
	C108.496002,83.847633 114.403557,89.405823 120.392021,95.382431 
	C123.476936,92.204170 126.247292,89.349983 129.521378,85.988663 
M158.316956,125.782761 
	C158.364319,117.264420 166.130020,120.140404 169.341019,118.252083 
	C163.557785,112.370308 157.596970,106.307930 151.617004,100.226067 
	C147.837250,104.062721 143.660599,108.302238 140.087662,111.928963 
	C145.810349,117.654198 151.622101,123.468529 157.529861,129.378922 
	C157.682739,128.696793 157.923309,127.623344 158.316956,125.782761 
M189.285019,101.902191 
	C185.251099,100.613052 185.964523,97.165779 186.469101,94.463921 
	C188.209167,85.146606 193.368683,96.565353 196.371841,92.886360 
	C195.309143,88.202560 192.007248,87.030426 187.784851,87.719154 
	C183.674088,88.389671 181.440796,92.552536 182.031174,97.906128 
	C182.547150,102.584908 185.053528,105.080208 189.325180,105.132622 
	C193.247406,105.180756 195.762909,103.618553 196.376846,99.928429 
	C196.040573,99.480042 195.704285,99.031662 195.368011,98.583275 
	C193.611801,99.677422 191.855606,100.771568 189.285019,101.902191 
M76.840500,101.550034 
	C74.138649,102.717018 72.260071,101.456718 72.301331,98.934074 
	C72.342941,96.389511 73.579117,93.864487 74.291931,91.330902 
	C75.438408,91.708855 76.598717,92.050018 77.727669,92.474579 
	C78.981125,92.945969 80.205978,93.493446 82.053429,94.261429 
	C80.601875,88.654434 78.355003,87.242935 73.470657,87.949051 
	C69.308838,88.550720 67.365738,92.360527 67.989319,98.584099 
	C68.416977,102.852211 70.769928,105.522369 74.991920,105.446617 
	C78.404945,105.385368 81.863594,104.330803 81.696922,98.424477 
	C79.814026,99.560165 78.612297,100.284996 76.840500,101.550034 
M88.950745,100.206314 
	C88.950386,97.383087 89.218292,94.522675 88.834419,91.752594 
	C88.647629,90.404610 87.243019,89.225380 86.389694,87.969757 
	C85.630135,89.162628 84.342850,90.301872 84.215088,91.558968 
	C83.897652,94.682167 83.850220,97.889420 84.214348,101.002083 
	C84.404305,102.625885 85.692986,104.121155 86.485397,105.674484 
	C87.307098,104.154495 88.128799,102.634506 88.950745,100.206314 
z"/>
<path fill="#A3A3FB" opacity="1.000000" stroke="none" 
	d="
M123.856438,122.853668 
	C122.253716,124.787354 120.900826,126.471024 119.547935,128.154694 
	C119.016838,128.256622 118.485748,128.358566 117.954651,128.460495 
	C118.034241,119.497566 113.450310,115.759628 104.771576,116.198692 
	C106.100029,114.593941 106.749016,113.668556 107.535675,112.880630 
	C122.250603,98.141953 136.976990,83.414719 151.713760,68.697884 
	C154.728455,65.687256 163.763718,65.303658 166.295715,68.034233 
	C168.967926,70.916031 168.332260,78.365593 165.101624,81.599716 
	C151.442444,95.273621 137.772354,108.936646 123.856438,122.853668 
z"/>
<path fill="#FDC44A" opacity="1.000000" stroke="none" 
	d="
M48.650414,70.420334 
	C42.644039,70.610901 42.447128,66.253555 41.172382,62.488426 
	C39.938847,58.845024 41.336823,56.625198 44.286247,55.210495 
	C51.248119,51.871193 58.037102,47.249470 65.406578,45.865887 
	C83.002754,42.562294 98.629372,47.381924 111.714935,61.871548 
	C104.028908,62.919430 96.904312,64.186813 99.165001,75.720711 
	C90.739777,67.049637 82.587975,62.655178 72.699142,63.944439 
	C67.590515,64.610481 62.408886,66.474365 57.838593,68.890869 
	C54.815269,70.489433 52.272018,71.468079 48.650414,70.420334 
z"/>
<path fill="#A1C0FF" opacity="1.000000" stroke="none" 
	d="
M239.625107,67.456619 
	C252.606094,84.090714 252.209839,109.806946 239.997147,125.969452 
	C235.305984,132.177826 233.312180,133.080399 226.223999,130.816315 
	C221.906311,129.437180 219.381805,120.641953 222.348434,117.314102 
	C232.810135,105.578545 233.236115,89.843925 223.444519,77.743149 
	C222.855026,77.014633 222.446716,76.139488 221.398544,74.422623 
	C230.124588,74.811073 233.985718,70.468338 233.569550,61.041531 
	C236.317169,63.913521 237.870636,65.537300 239.625107,67.456619 
z"/>
<path fill="#A4A4FB" opacity="1.000000" stroke="none" 
	d="
M219.497025,71.045967 
	C217.890182,70.977921 216.424347,71.259155 215.478485,70.684509 
	C198.929016,60.629971 188.771713,61.268314 173.974960,73.420891 
	C173.748276,73.607071 173.373474,73.612923 172.309860,73.926102 
	C172.866974,65.257736 167.396698,62.560913 158.907501,62.497948 
	C164.311157,55.319954 170.582809,51.302448 177.449554,48.572220 
	C193.479324,42.198738 209.028625,43.726254 223.509521,53.202000 
	C226.218018,54.974331 230.586807,55.986290 229.434494,61.136436 
	C227.556137,69.531616 227.679306,69.559174 219.497025,71.045967 
z"/>
<path fill="#A1C0FF" opacity="1.000000" stroke="none" 
	d="
M168.273956,139.755432 
	C163.769653,136.279251 159.303909,133.580383 161.724487,126.613373 
	C163.706055,120.909935 171.559174,118.288277 176.640488,121.901253 
	C181.154144,125.110588 186.101212,128.099670 191.305191,129.863815 
	C200.740417,133.062347 209.177307,129.197495 217.744202,123.748192 
	C218.929611,131.290665 222.682053,136.056854 231.054443,135.706604 
	C219.460754,149.694794 190.839081,156.662521 168.273956,139.755432 
z"/>
<path fill="#89D4F6" opacity="1.000000" stroke="none" 
	d="
M62.051949,126.127106 
	C75.397011,132.565140 86.966187,130.992081 97.889023,121.458916 
	C100.378845,119.285866 109.642723,119.434868 111.542625,121.678513 
	C113.929832,124.497650 113.348984,132.314224 110.545982,135.090714 
	C92.352600,153.111984 62.358364,153.634491 43.795204,135.738251 
	C47.142998,134.705750 50.928432,134.571716 52.991817,132.618515 
	C55.163757,130.562531 55.689346,126.767334 57.104160,123.317902 
	C58.697495,124.232529 60.208843,125.100098 62.051949,126.127106 
z"/>
<path fill="#89D4F6" opacity="1.000000" stroke="none" 
	d="
M27.330664,77.498734 
	C30.636957,72.159187 33.783875,67.169067 36.930790,62.178951 
	C37.415695,62.144634 37.900597,62.110313 38.385502,62.075993 
	C38.919861,69.968819 42.094864,75.037758 51.401054,73.985855 
	C50.258049,75.868393 49.695000,76.954887 48.987335,77.937195 
	C39.519516,91.079414 39.735027,104.163712 49.653988,116.905838 
	C52.141685,120.101593 51.539223,127.431740 48.598549,129.747498 
	C44.957378,132.614883 38.438667,132.440750 35.595974,129.100281 
	C22.518847,113.733292 20.271868,96.528275 27.330664,77.498734 
z"/>
<path fill="#FDC348" opacity="1.000000" stroke="none" 
	d="
M129.269501,86.242233 
	C126.247292,89.349983 123.476936,92.204170 120.392021,95.382431 
	C114.403557,89.405823 108.496002,83.847633 103.007034,77.902946 
	C99.806564,74.436768 103.291550,66.363121 107.718155,64.902702 
	C113.240143,63.080887 116.967430,64.689758 120.676407,68.880043 
	C124.601707,73.314743 129.269440,77.092300 133.849167,81.377983 
	C131.954437,83.396561 130.737915,84.692612 129.269501,86.242233 
z"/>
<path fill="#FCC44B" opacity="1.000000" stroke="none" 
	d="
M158.240417,126.166328 
	C157.923309,127.623344 157.682739,128.696793 157.529861,129.378922 
	C151.622101,123.468529 145.810349,117.654198 140.087662,111.928963 
	C143.660599,108.302238 147.837250,104.062721 151.617004,100.226067 
	C157.596970,106.307930 163.557785,112.370308 169.341019,118.252083 
	C166.130020,120.140404 158.364319,117.264420 158.240417,126.166328 
z"/>
<path fill="#1A99FC" opacity="1.000000" stroke="none" 
	d="
M189.692215,101.883949 
	C191.855606,100.771568 193.611801,99.677422 195.368011,98.583275 
	C195.704285,99.031662 196.040573,99.480042 196.376846,99.928429 
	C195.762909,103.618553 193.247406,105.180756 189.325180,105.132622 
	C185.053528,105.080208 182.547150,102.584908 182.031174,97.906128 
	C181.440796,92.552536 183.674088,88.389671 187.784851,87.719154 
	C192.007248,87.030426 195.309143,88.202560 196.371841,92.886360 
	C193.368683,96.565353 188.209167,85.146606 186.469101,94.463921 
	C185.964523,97.165779 185.251099,100.613052 189.692215,101.883949 
z"/>
<path fill="#1F9AFC" opacity="1.000000" stroke="none" 
	d="
M199.987198,88.034996 
	C201.391129,87.976166 202.795074,87.917336 204.689026,88.120583 
	C205.442001,88.293236 205.704971,88.203812 205.967941,88.114388 
	C210.526581,88.944542 211.935715,92.120232 212.052597,96.268883 
	C212.180725,100.815605 210.073212,103.713638 205.241364,104.752388 
	C204.540771,104.663895 204.286224,104.767242 204.031662,104.870590 
	C202.944199,104.921623 201.856735,104.972664 200.245972,104.734863 
	C199.487762,104.206917 199.207779,104.046402 198.882721,103.964478 
	C198.810806,99.291809 198.738892,94.619148 199.012650,89.389511 
	C199.567932,88.566689 199.777573,88.300842 199.987198,88.034996 
M202.858200,100.862076 
	C204.203827,100.683228 206.599426,100.760818 206.716400,100.281906 
	C207.273376,98.001236 207.604263,95.497391 207.189178,93.223831 
	C207.004013,92.209557 204.875214,91.550125 202.756226,90.155548 
	C202.756226,94.428871 202.756226,97.215958 202.858200,100.862076 
z"/>
<path fill="#8AD5F6" opacity="1.000000" stroke="none" 
	d="
M77.125534,101.279938 
	C78.612297,100.284996 79.814026,99.560165 81.696922,98.424477 
	C81.863594,104.330803 78.404945,105.385368 74.991920,105.446617 
	C70.769928,105.522369 68.416977,102.852211 67.989319,98.584099 
	C67.365738,92.360527 69.308838,88.550720 73.470657,87.949051 
	C78.355003,87.242935 80.601875,88.654434 82.053429,94.261429 
	C80.205978,93.493446 78.981125,92.945969 77.727669,92.474579 
	C76.598717,92.050018 75.438408,91.708855 74.291931,91.330902 
	C73.579117,93.864487 72.342941,96.389511 72.301331,98.934074 
	C72.260071,101.456718 74.138649,102.717018 77.125534,101.279938 
z"/>
<path fill="#9BDAF6" opacity="1.000000" stroke="none" 
	d="
M88.950623,100.660416 
	C88.128799,102.634506 87.307098,104.154495 86.485397,105.674484 
	C85.692986,104.121155 84.404305,102.625885 84.214348,101.002083 
	C83.850220,97.889420 83.897652,94.682167 84.215088,91.558968 
	C84.342850,90.301872 85.630135,89.162628 86.389694,87.969757 
	C87.243019,89.225380 88.647629,90.404610 88.834419,91.752594 
	C89.218292,94.522675 88.950386,97.383087 88.950623,100.660416 
z"/>
<path fill="#0092FE" opacity="1.000000" stroke="none" 
	d="
M199.681778,88.037292 
	C199.777573,88.300842 199.567932,88.566689 199.120758,88.936203 
	C199.047607,88.706444 199.211990,88.373024 199.681778,88.037292 
z"/>
<path fill="#0092FE" opacity="1.000000" stroke="none" 
	d="
M205.733917,88.051163 
	C205.704971,88.203812 205.442001,88.293236 205.099915,88.222427 
	C205.020813,88.062195 205.499908,87.987938 205.733917,88.051163 
z"/>
<path fill="#0092FE" opacity="1.000000" stroke="none" 
	d="
M198.892822,104.255867 
	C199.207779,104.046402 199.487762,104.206917 199.843506,104.658318 
	C199.610535,104.762817 199.256744,104.655037 198.892822,104.255867 
z"/>
<path fill="#0092FE" opacity="1.000000" stroke="none" 
	d="
M204.264587,104.915512 
	C204.286224,104.767242 204.540771,104.663895 204.878662,104.712036 
	C204.962006,104.863525 204.497528,104.960434 204.264587,104.915512 
z"/>
<path fill="#F4F9FC" opacity="1.000000" stroke="none" 
	d="
M202.807220,100.432564 
	C202.756226,97.215958 202.756226,94.428871 202.756226,90.155548 
	C204.875214,91.550125 207.004013,92.209557 207.189178,93.223831 
	C207.604263,95.497391 207.273376,98.001236 206.716400,100.281906 
	C206.599426,100.760818 204.203827,100.683228 202.807220,100.432564 
z"/>
</svg>