<?xml version="1.0" encoding="UTF-8"?>
<svg version="1.1" xmlns="http://www.w3.org/2000/svg" width="48" height="48">
<path d="M0 0 C1.36161311 0.96113866 2.69855198 1.95884159 4 3 C5.175625 3 6.35125 3 7.5625 3 C11 3 11 3 12.9375 4.25 C14 6 14 6 14 10 C14.78375 9.95875 15.5675 9.9175 16.375 9.875 C19 10 19 10 21 12 C21.265625 13.875 21.265625 13.875 21.25 16 C21.25773437 17.051875 21.25773437 17.051875 21.265625 18.125 C21 20 21 20 19 22 C15.875 22.125 15.875 22.125 13 22 C12.855625 22.639375 12.71125 23.27875 12.5625 23.9375 C12 26 12 26 11 27 C8.71315662 27.2819396 6.42636727 27.44777005 4.12890625 27.62109375 C1.79072597 27.82776636 1.79072597 27.82776636 0 30 C-7.13688469 30.56641942 -7.13688469 30.56641942 -10 28.6875 C-11 27 -11 27 -11 24 C-11.763125 24.061875 -12.52625 24.12375 -13.3125 24.1875 C-16 24 -16 24 -17.8125 23 C-19.70594859 19.81103395 -19.5639736 16.60943101 -19 13 C-17.6875 11 -17.6875 11 -16 10 C-15.01 10 -14.02 10 -13 10 C-13.0825 9.0925 -13.165 8.185 -13.25 7.25 C-13 4 -13 4 -11.5625 1.625 C-7.79984465 -0.76107412 -4.34381552 -0.70243857 0 0 Z " fill="#BADDFB" transform="translate(23,9)"/>
</svg>
