<?xml version="1.0" encoding="UTF-8"?>
<svg version="1.1" xmlns="http://www.w3.org/2000/svg" width="48" height="48">
<path d="M0 0 C13.86 0 27.72 0 42 0 C42 10.56 42 21.12 42 32 C37.71 32 33.42 32 29 32 C29 32.66 29 33.32 29 34 C30.32 34 31.64 34 33 34 C33 35.32 33 36.64 33 38 C25.08 38 17.16 38 9 38 C9 36.68 9 35.36 9 34 C10.32 34 11.64 34 13 34 C13 33.34 13 32.68 13 32 C8.71 32 4.42 32 0 32 C0 21.44 0 10.88 0 0 Z " fill="#FDFDFD" transform="translate(3,6)"/>
<path d="M0 0 C13.86 0 27.72 0 42 0 C42 10.56 42 21.12 42 32 C37.71 32 33.42 32 29 32 C29 32.66 29 33.32 29 34 C30.32 34 31.64 34 33 34 C33 35.32 33 36.64 33 38 C25.08 38 17.16 38 9 38 C9 36.68 9 35.36 9 34 C10.32 34 11.64 34 13 34 C13 33.34 13 32.68 13 32 C8.71 32 4.42 32 0 32 C0 21.44 0 10.88 0 0 Z M2 2 C2 10.58 2 19.16 2 28 C14.54 28 27.08 28 40 28 C40 19.42 40 10.84 40 2 C27.46 2 14.92 2 2 2 Z " fill="#000000" transform="translate(3,6)"/>
<path d="M0 0 C3.96 0 7.92 0 12 0 C12 1.65 12 3.3 12 5 C8.04 5 4.08 5 0 5 C0 3.35 0 1.7 0 0 Z " fill="#FFFFFF" transform="translate(18,36)"/>
<path d="M0 0 C0.66 0 1.32 0 2 0 C1.41632611 6.30367803 -0.04071619 11.98660063 -2 18 C-2.66 18 -3.32 18 -4 18 C-3.41632611 11.69632197 -1.95928381 6.01339937 0 0 Z " fill="#353535" transform="translate(25,12)"/>
<path d="M0 0 C-0.33 0.5775 -0.66 1.155 -1 1.75 C-2.27075898 4.19883862 -2.27075898 4.19883862 -2 8 C-1.06716704 10.20067421 -1.06716704 10.20067421 0 12 C-2.88437779 10.70700306 -4.87219421 9.34058637 -7 7 C-3.86206897 0 -3.86206897 0 0 0 Z " fill="#202020" transform="translate(19,15)"/>
<path d="M0 0 C2.88437779 1.29299694 4.87219421 2.65941363 7 5 C5.71480435 7.86697492 4.42870746 9.97607712 2 12 C1.34 12 0.68 12 0 12 C0.33 11.4225 0.66 10.845 1 10.25 C2.27075898 7.80116138 2.27075898 7.80116138 2 4 C1.06716704 1.79932579 1.06716704 1.79932579 0 0 Z " fill="#202020" transform="translate(29,15)"/>
</svg>
