<?xml version="1.0" encoding="UTF-8"?>
<svg version="1.1" xmlns="http://www.w3.org/2000/svg" width="50" height="50">
<path d="M0 0 C-1.15173355 2.46800047 -2.04783565 4.04783565 -4 6 C-3.6814823 8.10820797 -3.6814823 8.10820797 -3 10 C0.32812571 9.42618522 1.69842455 8.40619252 4 6 C4.66 6 5.32 6 6 6 C6.60494959 13.13840513 6.60494959 13.13840513 3.9375 16.9375 C0.52172982 19.33580672 -1.90995307 19.53697582 -6 20 C-6.66 20.99 -7.32 21.98 -8 23 C-7.3503125 23.58007812 -6.700625 24.16015625 -6.03125 24.7578125 C-5.1959375 25.53898437 -4.360625 26.32015625 -3.5 27.125 C-2.6646875 27.89070313 -1.829375 28.65640625 -0.96875 29.4453125 C1 32 1 32 1.40625 35.1796875 C1 38 1 38 -1 40 C-3.8203125 40.40625 -3.8203125 40.40625 -7 40 C-9.5546875 38.03125 -9.5546875 38.03125 -11.875 35.5 C-12.65617187 34.6646875 -13.43734375 33.829375 -14.2421875 32.96875 C-14.82226562 32.3190625 -15.40234375 31.669375 -16 31 C-17.1055189 31.93590504 -18.20935453 32.87379858 -19.3125 33.8125 C-20.23482422 34.59560547 -20.23482422 34.59560547 -21.17578125 35.39453125 C-23.01141526 36.9522357 -23.01141526 36.9522357 -24.5390625 38.6796875 C-26 40 -26 40 -29.0625 40.3125 C-32 40 -32 40 -34 38 C-34.46875 35.2421875 -34.46875 35.2421875 -34 32 C-32.20515074 29.76809329 -30.59338551 28.01779083 -28.5 26.125 C-27.97535156 25.62742187 -27.45070313 25.12984375 -26.91015625 24.6171875 C-25.61995498 23.39736085 -24.31168268 22.19669751 -23 21 C-26.02612428 17.25336994 -29.00307504 13.9047587 -32.8125 10.9375 C-35.52221359 8.72317457 -35.94827238 8.18621943 -36.9375 4.625 C-36.9684375 3.325625 -36.9684375 3.325625 -37 2 C-32.82790052 2.14408151 -30.6349713 3.00727253 -27.7890625 5.94140625 C-26.72006378 7.13578136 -25.66561239 8.34331338 -24.625 9.5625 C-24.07972656 10.17802734 -23.53445312 10.79355469 -22.97265625 11.42773438 C-21.63567231 12.94063725 -20.31605751 14.46885866 -19 16 C-16.45912179 14.22073251 -16.45912179 14.22073251 -14 12 C-13.66073053 9.66752239 -13.32759934 7.33414529 -13 5 C-9.15843662 -0.47131755 -6.22742759 -0.5277481 0 0 Z " fill="#AE2131" transform="translate(41,4)"/>
<path d="M0 0 C-1.15173355 2.46800047 -2.04783565 4.04783565 -4 6 C-3.6814823 8.10820797 -3.6814823 8.10820797 -3 10 C0.32812571 9.42618522 1.69842455 8.40619252 4 6 C4.66 6 5.32 6 6 6 C6.60494959 13.13840513 6.60494959 13.13840513 3.9375 16.9375 C0.50108784 19.35030003 -1.87637333 19.55014982 -6 20 C-8.38028291 21.42675173 -8.38028291 21.42675173 -10 23 C-12.31 20.69 -14.62 18.38 -17 16 C-16.2884375 15.2265625 -16.2884375 15.2265625 -15.5625 14.4375 C-13.74131346 11.9945173 -13.74131346 11.9945173 -13.625 8.5625 C-12.18065667 0.32974303 -7.29226425 -0.6179885 0 0 Z " fill="#99A0A8" transform="translate(41,4)"/>
<path d="M0 0 C2.31 1.98 4.62 3.96 7 6 C5.6149346 11.54026162 2.47216121 14.54981348 -2 18 C-5.375 18.625 -5.375 18.625 -8 18 C-10 16 -10 16 -10.4375 13.2109375 C-9.85150678 8.91016586 -8.14993748 7.53869217 -5 4.625 C-4.071875 3.75101563 -3.14375 2.87703125 -2.1875 1.9765625 C-1.465625 1.32429688 -0.74375 0.67203125 0 0 Z " fill="#96A3B0" transform="translate(17,26)"/>
<path d="M0 0 C4.10744223 0.1603506 6.35227498 0.99131383 9.2109375 3.8359375 C10.27997331 5.0026383 11.33443025 6.18284107 12.375 7.375 C12.92027344 7.96539063 13.46554688 8.55578125 14.02734375 9.1640625 C18 13.58476269 18 13.58476269 18 17 C17.01 17.66 16.02 18.32 15 19 C14.40832031 18.39671875 13.81664062 17.7934375 13.20703125 17.171875 C8.3527808 12.20888095 8.3527808 12.20888095 3 7.8125 C0.34606618 5.40737248 0.23818736 3.49341465 0 0 Z " fill="#9CA4AC" transform="translate(4,6)"/>
<path d="M0 0 C1.32 0.66 2.64 1.32 4 2 C1.75 4.5 1.75 4.5 -1 7 C-2.32 7 -3.64 7 -5 7 C-5 5 -5 5 -2.5 2.375 C-1.675 1.59125 -0.85 0.8075 0 0 Z " fill="#C45464" transform="translate(23,20)"/>
</svg>
